<svg width="226" height="46" viewBox="0 0 226 46" fill="none" xmlns="http://www.w3.org/2000/svg">
<g clip-path="url(#clip0)">
<path d="M36.1877 1.89459H32.966L33.3553 0H42.1279L41.7419 1.89459H38.5336L36.8925 10.0598H34.5634L36.1877 1.89459Z" fill="white"/>
<path d="M50.9139 1.79395L49.2728 10.0597H46.9874L47.6586 6.7836H44.3026L43.6314 10.0597H41.3594L43.0139 1.79395H45.2859L44.6516 4.95607H48.0076L48.6419 1.79395H50.9139Z" fill="white"/>
<path d="M55.1592 3.55105L54.8572 5.06002H58.6327L58.2971 6.71317H54.5283L54.1927 8.33615H58.6327L58.2971 10.0765H51.6086L53.2631 1.79395H59.767L59.4314 3.53429L55.1592 3.55105Z" fill="white"/>
<path d="M174.455 43.6192H169.277L167.83 46H165.085L172.28 34.8906H174.821L177.553 46H174.979L174.455 43.6192ZM174.025 41.6676L173.089 37.3821L170.468 41.6676H174.025Z" fill="white"/>
<path d="M187.235 37.6437C187.557 37.8991 187.814 38.2276 187.984 38.602C188.154 38.9764 188.232 39.3859 188.211 39.7964C188.23 40.5084 188.033 41.2094 187.648 41.8084C187.253 42.3935 186.698 42.8532 186.05 43.1329C185.283 43.461 184.455 43.6211 183.62 43.6024H181.744L181.268 46.0134H178.778L180.603 36.8892H184.483C185.668 36.8758 186.584 37.1306 187.235 37.6437ZM185.154 41.2249C185.325 41.0753 185.459 40.8888 185.547 40.6797C185.635 40.4706 185.674 40.2442 185.661 40.0178C185.674 39.8475 185.644 39.6766 185.575 39.5204C185.506 39.3642 185.4 39.2275 185.265 39.1224C184.925 38.9039 184.524 38.8004 184.12 38.8274H182.691L182.12 41.6508H183.724C184.237 41.6832 184.743 41.5322 185.154 41.2249Z" fill="white"/>
<path d="M197.494 37.6439C197.817 37.8993 198.073 38.2278 198.243 38.6022C198.413 38.9766 198.491 39.3861 198.471 39.7967C198.489 40.5086 198.293 41.2096 197.907 41.8086C197.512 42.3937 196.958 42.8534 196.309 43.1332C195.543 43.4615 194.714 43.6216 193.88 43.6026H192.007L191.531 46.0002H189.02L190.859 36.876H194.752C195.931 36.876 196.845 37.1319 197.494 37.6439ZM195.42 41.2252C195.591 41.0758 195.726 40.8895 195.815 40.6804C195.903 40.4712 195.943 40.2447 195.93 40.018C195.943 39.8474 195.913 39.6765 195.843 39.5203C195.773 39.3642 195.666 39.2276 195.531 39.1227C195.192 38.9041 194.792 38.8007 194.39 38.8276H192.96L192.386 41.651H193.991C194.503 41.6834 195.009 41.5324 195.42 41.2252Z" fill="white"/>
<path d="M160.746 43.6327H6.7053C5.71208 43.633 4.73117 43.4132 3.83328 42.9889C2.9354 42.5647 2.14294 41.9466 1.51306 41.1793C0.883172 40.412 0.431566 39.5146 0.19081 38.5518C-0.0499463 37.589 -0.0738519 36.5848 0.120818 35.6117L5.49042 8.78559C5.79878 7.26672 6.62232 5.90074 7.82197 4.91835C9.02161 3.93596 10.5238 3.39737 12.0749 3.39355H32.8016L31.4088 10.1001H12.085L6.71536 36.9261H165.018L160.746 43.6327Z" fill="white"/>
<path d="M207.774 43.6324H201.441L202.82 36.9259H207.774C209.712 36.922 211.59 36.2495 213.089 35.022C214.588 33.7945 215.617 32.0874 216.003 30.1892L219.221 14.1103C219.321 13.6228 219.31 13.1192 219.191 12.6361C219.072 12.153 218.846 11.7025 218.531 11.3173C218.216 10.9321 217.819 10.6218 217.369 10.4089C216.919 10.196 216.427 10.0858 215.929 10.0864H61.9049L63.0661 3.37988H215.929C217.419 3.37969 218.89 3.7099 220.237 4.34668C221.583 4.98346 222.772 5.91095 223.716 7.06223C224.661 8.21352 225.338 9.55992 225.699 11.0043C226.059 12.4487 226.095 13.955 225.802 15.4147L222.584 31.4903C221.894 34.9098 220.043 37.9863 217.345 40.199C214.646 42.4116 211.265 43.6245 207.774 43.6324Z" fill="white"/>
<path d="M36.4831 13.7148L32.5432 33.5728H27.0326L28.6234 25.6994H20.5354L18.9447 33.5728H13.4844L17.4579 13.7148H22.9215L21.3979 21.3234H29.4892L31.0095 13.7249L36.4831 13.7148Z" fill="white"/>
<path d="M42.524 13.7148H47.9842L44.0107 33.5728H38.5438L42.524 13.7148Z" fill="white"/>
<path d="M65.1602 23.3858H70.1036L68.4457 31.7186C67.3575 32.4791 66.1461 33.0463 64.8649 33.3953C63.4527 33.7836 61.9936 33.9754 60.5289 33.9653C58.6886 34.0084 56.8623 33.6358 55.1862 32.8755C53.7521 32.2151 52.5399 31.1542 51.6959 29.8207C50.8619 28.4479 50.4369 26.8659 50.471 25.2603C50.4361 23.1086 50.9921 20.9886 52.0785 19.1305C53.1524 17.3188 54.7157 15.8463 56.589 14.8819C58.6391 13.8284 60.9188 13.2995 63.2238 13.3428C67.1861 13.3428 70.0947 14.541 71.9494 16.9375L68.0095 20.046C66.8326 18.5459 65.1267 17.797 62.8916 17.7993C61.6144 17.7724 60.3541 18.0948 59.2469 18.7315C58.2144 19.337 57.3753 20.2231 56.8273 21.2867C56.2517 22.4086 55.9602 23.6543 55.9782 24.9149C55.9524 25.535 56.0629 26.1532 56.3018 26.7261C56.5406 27.2991 56.9021 27.8128 57.3609 28.2313C58.2849 29.0606 59.587 29.4753 61.2673 29.4753C62.2225 29.4903 63.172 29.3254 64.0662 28.9891L65.1602 23.3858Z" fill="white"/>
<path d="M96.5121 13.7148L92.5721 33.5728H87.075L88.6657 25.6994H80.5778L78.987 33.5728H73.5268L77.5003 13.7148H82.9639L81.4537 21.3234H89.545L91.0653 13.7249L96.5121 13.7148Z" fill="white"/>
<path d="M102.563 13.7148H108.023L104.878 29.3243H114.591L113.762 33.5728H98.5859L102.563 13.7148Z" fill="white"/>
<path d="M121.39 13.7148H126.86L122.887 33.5728H117.423L121.39 13.7148Z" fill="white"/>
<path d="M144.04 23.3856H148.983L147.325 31.7184C146.238 32.4789 145.028 33.0461 143.748 33.3951C142.334 33.7831 140.874 33.9749 139.408 33.9651C137.569 34.0086 135.744 33.636 134.069 32.8753C132.633 32.2159 131.42 31.1548 130.575 29.8205C129.743 28.447 129.318 26.8655 129.35 25.2601C129.315 23.1084 129.871 20.9884 130.958 19.1303C132.035 17.3126 133.604 15.8362 135.485 14.8717C137.536 13.8181 139.817 13.2893 142.123 13.3325C146.083 13.3325 148.986 14.5308 150.832 16.9272L146.892 20.0357C145.718 18.5357 144.013 17.7868 141.778 17.789C140.499 17.7622 139.238 18.0845 138.13 18.7212C137.097 19.3267 136.258 20.2128 135.71 21.2764C135.137 22.3991 134.847 23.6445 134.864 24.9046C134.838 25.5249 134.948 26.1434 135.187 26.7164C135.425 27.2895 135.787 27.8031 136.247 28.221C137.167 29.0504 138.468 29.4651 140.15 29.4651C141.106 29.4801 142.057 29.3152 142.952 28.9788L144.04 23.3856Z" fill="white"/>
<path d="M175.391 13.7148L171.452 33.5728H165.958L167.545 25.6994H159.457L157.866 33.5728H152.406L156.38 13.7148H161.843L160.32 21.3234H168.408L169.928 13.7249L175.391 13.7148Z" fill="white"/>
<path d="M184.345 17.9703H178.107L178.935 13.7217H196.9L196.064 17.9703H189.806L186.661 33.5797H181.201L184.345 17.9703Z" fill="white"/>
<path d="M198.793 33.3951C197.526 33.1132 196.321 32.6043 195.235 31.8928L197.377 27.7482C198.374 28.396 199.464 28.89 200.608 29.2136C201.76 29.5469 202.953 29.7162 204.152 29.7166C205.052 29.7589 205.95 29.5996 206.78 29.2505C207.054 29.142 207.29 28.9541 207.456 28.7108C207.622 28.4676 207.712 28.1802 207.713 27.8857C207.705 27.6252 207.62 27.3729 207.469 27.1605C207.318 26.9481 207.108 26.7851 206.864 26.6919C206 26.302 205.101 25.9955 204.179 25.7765C203.085 25.4971 202.011 25.1453 200.964 24.7236C200.119 24.3728 199.367 23.8296 198.769 23.1375C198.135 22.3664 197.809 21.3882 197.853 20.3911C197.83 19.0606 198.236 17.758 199.011 16.6757C199.857 15.5511 201.009 14.6942 202.33 14.2077C203.971 13.5954 205.714 13.3018 207.465 13.3426C208.806 13.3371 210.144 13.4765 211.455 13.7584C212.58 13.9838 213.661 14.3928 214.653 14.9689L212.613 19.1136C210.977 18.0651 209.062 17.5345 207.119 17.5912C205.921 17.5912 204.985 17.7756 204.317 18.1445C203.649 18.5133 203.31 18.9962 203.31 19.5964C203.317 19.8543 203.401 20.1042 203.552 20.3135C203.703 20.5228 203.913 20.6819 204.156 20.7701C205.02 21.1448 205.919 21.4335 206.841 21.6319C207.935 21.8892 209.01 22.2254 210.056 22.6378C210.901 22.9907 211.657 23.528 212.267 24.2105C212.919 24.9793 213.254 25.9672 213.204 26.9736C213.233 28.2998 212.818 29.5978 212.026 30.6622C211.158 31.773 209.995 32.6168 208.67 33.0966C207.035 33.7055 205.299 33.9991 203.555 33.9618C201.95 33.9703 200.351 33.7799 198.793 33.3951Z" fill="white"/>
</g>
<defs>
<clipPath id="clip0">
<rect width="226" height="46" fill="white"/>
</clipPath>
</defs>
</svg>
